<?xml version="1.0" encoding="utf-8"?>
<!-- Generator: Adobe Illustrator 24.0.0, SVG Export Plug-In . SVG Version: 6.00 Build 0)  -->
<svg version="1.1" id="图层_1" xmlns="http://www.w3.org/2000/svg" xmlns:xlink="http://www.w3.org/1999/xlink" x="0px" y="0px"
	 viewBox="0 0 841.89 595.28" style="enable-background:new 0 0 841.89 595.28;" xml:space="preserve">
<path d="M112,319.34h38.49c9.63,0,17.47-7.84,17.47-17.47c0-9.63-7.84-17.47-17.47-17.47h-0.2h-29.94c-5.48,0-10.29-2.9-12.98-7.25
	c0.97-1.56,2.19-2.92,3.65-4.05c2.69-2.08,5.92-3.18,9.33-3.18h38.49c5.03,0,9.12-4.09,9.12-9.12s-4.09-9.12-9.12-9.12h-38.49
	c-9.63,0-17.47,7.84-17.47,17.47c0,9.63,7.84,17.47,17.47,17.47h29.94h0.2c8.41,0,15.26,6.84,15.26,15.26c0,2.04-0.4,3.98-1.13,5.75
	c-3.28-4.53-8.46-7.2-14.13-7.2h-0.2h-29.94c-8.41,0-15.26-6.84-15.26-15.26h-2.21c0,9.63,7.84,17.47,17.47,17.47h29.94h0.2
	c5.33,0,10.17,2.7,12.98,7.24c-2.69,4.35-7.5,7.25-12.98,7.25H112c-5.03,0-9.12,4.09-9.12,9.12c0,5.03,4.09,9.12,9.12,9.12h38.49
	c9.63,0,17.47-7.84,17.47-17.47h-2.21c0,8.41-6.84,15.26-15.26,15.26H112c-3.81,0-6.91-3.1-6.91-6.91
	C105.09,322.43,108.19,319.34,112,319.34z M105.09,269.14c0-8.41,6.84-15.26,15.26-15.26h38.49c3.81,0,6.91,3.1,6.91,6.91
	c0,3.81-3.1,6.91-6.91,6.91h-38.49c-3.91,0-7.6,1.26-10.68,3.65c-1.32,1.02-2.48,2.21-3.45,3.55
	C105.49,273.11,105.09,271.17,105.09,269.14z"/>
<g>
	<path d="M219.99,315.6c-3.05,0-5.8-0.53-8.24-1.59c-2.44-1.06-4.45-2.58-6.03-4.56s-2.57-4.33-3-7.06l7.24-1.1
		c0.62,2.47,1.89,4.38,3.81,5.74c1.92,1.35,4.14,2.03,6.65,2.03c1.49,0,2.89-0.23,4.2-0.7c1.31-0.46,2.38-1.14,3.2-2.03
		c0.82-0.89,1.23-1.98,1.23-3.27c0-0.58-0.1-1.12-0.29-1.61c-0.19-0.49-0.48-0.93-0.85-1.32c-0.38-0.39-0.86-0.74-1.45-1.06
		c-0.59-0.32-1.27-0.59-2.04-0.83l-10.78-3.19c-0.93-0.27-1.93-0.63-3-1.09c-1.07-0.45-2.09-1.08-3.04-1.88
		c-0.96-0.8-1.74-1.83-2.35-3.07s-0.91-2.79-0.91-4.62c0-2.69,0.68-4.94,2.04-6.77s3.2-3.19,5.51-4.1c2.31-0.91,4.87-1.35,7.69-1.33
		c2.86,0.02,5.41,0.51,7.65,1.46c2.24,0.96,4.11,2.34,5.62,4.16c1.51,1.82,2.57,4.01,3.19,6.58l-7.5,1.3
		c-0.31-1.47-0.9-2.72-1.78-3.75c-0.88-1.03-1.95-1.82-3.22-2.36c-1.27-0.54-2.61-0.83-4.04-0.87c-1.39-0.02-2.68,0.19-3.87,0.62
		s-2.14,1.06-2.87,1.87c-0.72,0.81-1.09,1.76-1.09,2.84c0,1.02,0.31,1.86,0.93,2.51c0.62,0.65,1.39,1.16,2.3,1.54
		c0.92,0.38,1.85,0.69,2.8,0.94l7.48,2.09c1.02,0.27,2.17,0.64,3.45,1.1c1.27,0.46,2.5,1.11,3.68,1.94
		c1.18,0.83,2.15,1.92,2.91,3.27c0.76,1.35,1.14,3.07,1.14,5.16c0,2.16-0.45,4.06-1.35,5.69c-0.9,1.63-2.11,2.99-3.64,4.07
		c-1.53,1.08-3.27,1.89-5.23,2.43C224.19,315.33,222.14,315.6,219.99,315.6z"/>
	<path d="M239.17,288.91v-5.48h21.82v5.48H239.17z M260.99,314.73c-2.07,0.39-4.09,0.56-6.07,0.51c-1.98-0.05-3.75-0.42-5.32-1.1
		c-1.56-0.68-2.75-1.77-3.56-3.26c-0.71-1.35-1.09-2.73-1.13-4.14c-0.04-1.41-0.06-3-0.06-4.78v-27.21h6.95v26.8
		c0,1.26,0.01,2.36,0.04,3.3c0.03,0.95,0.23,1.72,0.59,2.32c0.7,1.16,1.81,1.81,3.33,1.94c1.53,0.14,3.26,0.06,5.22-0.23V314.73z"/>
	<path d="M276.5,315.6c-2.26,0-4.17-0.43-5.74-1.29c-1.56-0.86-2.75-2-3.55-3.43c-0.8-1.43-1.2-3-1.2-4.72
		c0-1.51,0.25-2.86,0.75-4.07s1.27-2.25,2.32-3.13c1.04-0.88,2.4-1.6,4.06-2.16c1.26-0.41,2.73-0.77,4.42-1.1
		c1.69-0.33,3.52-0.63,5.51-0.91c1.98-0.28,4.05-0.58,6.22-0.91l-2.49,1.42c0.02-2.16-0.46-3.76-1.45-4.78
		c-0.98-1.02-2.65-1.54-4.98-1.54c-1.41,0-2.77,0.33-4.09,0.99c-1.31,0.66-2.23,1.79-2.75,3.39l-6.37-2
		c0.77-2.65,2.25-4.77,4.42-6.37c2.17-1.6,5.1-2.41,8.79-2.41c2.78,0,5.23,0.45,7.35,1.36c2.12,0.91,3.68,2.4,4.71,4.46
		c0.56,1.1,0.9,2.23,1.01,3.38s0.17,2.4,0.17,3.75v19.21h-6.11v-6.78l1.01,1.1c-1.41,2.26-3.06,3.92-4.94,4.97
		C281.67,315.07,279.32,315.6,276.5,315.6z M277.89,310.03c1.58,0,2.94-0.28,4.06-0.84c1.12-0.56,2.01-1.25,2.68-2.06
		c0.67-0.81,1.12-1.57,1.35-2.29c0.37-0.89,0.57-1.91,0.62-3.06c0.05-1.15,0.07-2.08,0.07-2.79l2.14,0.64
		c-2.11,0.33-3.91,0.62-5.42,0.87c-1.51,0.25-2.8,0.49-3.88,0.71c-1.08,0.22-2.04,0.47-2.87,0.74c-0.81,0.29-1.5,0.63-2.06,1.01
		c-0.56,0.39-0.99,0.83-1.29,1.33c-0.3,0.5-0.45,1.09-0.45,1.77c0,0.77,0.19,1.45,0.58,2.04c0.39,0.59,0.95,1.06,1.7,1.41
		C275.86,309.86,276.79,310.03,277.89,310.03z"/>
	<path d="M301.07,314.73v-31.29h6.23v9.71h0.84v21.59H301.07z M322.77,314.73v-15.07c0-0.99-0.07-2.08-0.2-3.27
		c-0.14-1.2-0.45-2.35-0.94-3.46c-0.49-1.11-1.23-2.02-2.2-2.74c-0.98-0.71-2.29-1.07-3.96-1.07c-0.89,0-1.77,0.14-2.64,0.43
		c-0.87,0.29-1.66,0.79-2.36,1.49c-0.71,0.71-1.27,1.67-1.69,2.9c-0.43,1.23-0.64,2.8-0.64,4.71l-4.14-1.77
		c0-2.67,0.52-5.08,1.55-7.24c1.03-2.16,2.55-3.89,4.56-5.17c2.01-1.28,4.48-1.93,7.42-1.93c2.32,0,4.23,0.39,5.74,1.16
		c1.51,0.77,2.7,1.76,3.59,2.96c0.89,1.2,1.54,2.47,1.97,3.83c0.42,1.35,0.7,2.63,0.83,3.84c0.13,1.21,0.19,2.19,0.19,2.94v17.47
		H322.77z"/>
	<path d="M349.43,315.6c-2.88,0-5.39-0.72-7.53-2.17c-2.14-1.45-3.81-3.42-4.98-5.91c-1.18-2.49-1.77-5.3-1.77-8.43
		c0-3.17,0.59-5.99,1.78-8.48c1.19-2.48,2.87-4.44,5.06-5.88c2.18-1.44,4.75-2.16,7.71-2.16c2.97,0,5.47,0.72,7.49,2.16
		c2.02,1.44,3.55,3.4,4.59,5.9c1.04,2.49,1.56,5.31,1.56,8.46c0,3.11-0.52,5.92-1.56,8.42c-1.04,2.5-2.6,4.48-4.67,5.93
		C355.04,314.87,352.48,315.6,349.43,315.6z M350.5,309.34c1.87,0,3.39-0.43,4.54-1.29c1.15-0.86,1.99-2.06,2.52-3.61
		s0.8-3.33,0.8-5.36c0-2.05-0.27-3.84-0.8-5.37c-0.53-1.54-1.36-2.73-2.48-3.59c-1.12-0.86-2.57-1.29-4.35-1.29
		c-1.87,0-3.42,0.46-4.64,1.38c-1.22,0.92-2.12,2.15-2.69,3.71c-0.58,1.56-0.87,3.28-0.87,5.17c0,1.91,0.28,3.65,0.85,5.2
		c0.57,1.56,1.44,2.79,2.62,3.7S348.68,309.34,350.5,309.34z M358.35,314.73v-21.96h-0.87V273h7.04v41.73H358.35z"/>
	<path d="M381.39,315.6c-2.26,0-4.17-0.43-5.74-1.29c-1.56-0.86-2.75-2-3.55-3.43c-0.8-1.43-1.2-3-1.2-4.72
		c0-1.51,0.25-2.86,0.75-4.07s1.27-2.25,2.32-3.13c1.04-0.88,2.4-1.6,4.06-2.16c1.26-0.41,2.73-0.77,4.42-1.1
		c1.69-0.33,3.52-0.63,5.51-0.91c1.98-0.28,4.05-0.58,6.22-0.91l-2.49,1.42c0.02-2.16-0.46-3.76-1.45-4.78
		c-0.98-1.02-2.65-1.54-4.98-1.54c-1.41,0-2.77,0.33-4.09,0.99c-1.31,0.66-2.23,1.79-2.75,3.39l-6.37-2
		c0.77-2.65,2.25-4.77,4.42-6.37c2.17-1.6,5.1-2.41,8.79-2.41c2.78,0,5.23,0.45,7.35,1.36c2.12,0.91,3.68,2.4,4.71,4.46
		c0.56,1.1,0.9,2.23,1.01,3.38s0.17,2.4,0.17,3.75v19.21h-6.11v-6.78l1.01,1.1c-1.41,2.26-3.06,3.92-4.94,4.97
		C386.56,315.07,384.21,315.6,381.39,315.6z M382.78,310.03c1.58,0,2.94-0.28,4.06-0.84c1.12-0.56,2.01-1.25,2.68-2.06
		c0.67-0.81,1.12-1.57,1.35-2.29c0.37-0.89,0.57-1.91,0.62-3.06c0.05-1.15,0.07-2.08,0.07-2.79l2.14,0.64
		c-2.11,0.33-3.91,0.62-5.42,0.87c-1.51,0.25-2.8,0.49-3.88,0.71c-1.08,0.22-2.04,0.47-2.87,0.74c-0.81,0.29-1.5,0.63-2.06,1.01
		c-0.56,0.39-0.99,0.83-1.29,1.33c-0.3,0.5-0.45,1.09-0.45,1.77c0,0.77,0.19,1.45,0.58,2.04c0.39,0.59,0.95,1.06,1.7,1.41
		C380.75,309.86,381.68,310.03,382.78,310.03z"/>
	<path d="M406.02,314.73v-31.29h6.17v7.62l-0.75-0.99c0.39-1.04,0.9-1.99,1.55-2.85c0.65-0.86,1.42-1.57,2.33-2.13
		c0.77-0.52,1.63-0.93,2.56-1.23c0.94-0.3,1.9-0.48,2.88-0.55c0.98-0.07,1.94-0.02,2.87,0.13v6.52c-0.93-0.27-2-0.36-3.2-0.26
		c-1.21,0.1-2.29,0.43-3.26,1.01c-0.97,0.52-1.75,1.19-2.36,2c-0.61,0.81-1.06,1.73-1.35,2.77c-0.29,1.03-0.43,2.15-0.43,3.35v15.91
		H406.02z"/>
	<path d="M441.11,315.6c-2.88,0-5.39-0.72-7.53-2.17c-2.14-1.45-3.81-3.42-4.98-5.91c-1.18-2.49-1.77-5.3-1.77-8.43
		c0-3.17,0.59-5.99,1.78-8.48c1.19-2.48,2.87-4.44,5.06-5.88c2.18-1.44,4.75-2.16,7.71-2.16c2.97,0,5.47,0.72,7.49,2.16
		c2.02,1.44,3.55,3.4,4.59,5.9c1.04,2.49,1.56,5.31,1.56,8.46c0,3.11-0.52,5.92-1.56,8.42s-2.6,4.48-4.67,5.93
		C446.72,314.87,444.16,315.6,441.11,315.6z M442.18,309.34c1.87,0,3.38-0.43,4.54-1.29c1.15-0.86,1.99-2.06,2.52-3.61
		s0.8-3.33,0.8-5.36c0-2.05-0.27-3.84-0.8-5.37c-0.53-1.54-1.36-2.73-2.48-3.59c-1.12-0.86-2.57-1.29-4.35-1.29
		c-1.87,0-3.42,0.46-4.64,1.38c-1.22,0.92-2.12,2.15-2.7,3.71c-0.58,1.56-0.87,3.28-0.87,5.17c0,1.91,0.29,3.65,0.86,5.2
		c0.57,1.56,1.44,2.79,2.62,3.7C438.86,308.89,440.36,309.34,442.18,309.34z M450.03,314.73v-21.96h-0.87V273h7.04v41.73H450.03z"/>
	<path d="M480.54,314.73V273h6.98v17.56h19.76V273h6.95v41.73h-6.95v-17.62h-19.76v17.62H480.54z"/>
	<path d="M531.1,315.6c-2.26,0-4.17-0.43-5.74-1.29c-1.56-0.86-2.75-2-3.55-3.43c-0.8-1.43-1.2-3-1.2-4.72
		c0-1.51,0.25-2.86,0.75-4.07c0.5-1.21,1.28-2.25,2.32-3.13s2.4-1.6,4.06-2.16c1.26-0.41,2.73-0.77,4.42-1.1s3.53-0.63,5.51-0.91
		c1.98-0.28,4.05-0.58,6.21-0.91l-2.49,1.42c0.02-2.16-0.46-3.76-1.45-4.78c-0.99-1.02-2.65-1.54-4.98-1.54
		c-1.41,0-2.77,0.33-4.08,0.99c-1.31,0.66-2.23,1.79-2.75,3.39l-6.38-2c0.77-2.65,2.25-4.77,4.42-6.37s5.1-2.41,8.79-2.41
		c2.78,0,5.23,0.45,7.35,1.36c2.12,0.91,3.68,2.4,4.71,4.46c0.56,1.1,0.9,2.23,1.01,3.38c0.12,1.15,0.17,2.4,0.17,3.75v19.21h-6.11
		v-6.78l1.01,1.1c-1.41,2.26-3.06,3.92-4.94,4.97S533.93,315.6,531.1,315.6z M532.5,310.03c1.58,0,2.94-0.28,4.06-0.84
		s2.01-1.25,2.68-2.06s1.12-1.57,1.35-2.29c0.37-0.89,0.57-1.91,0.62-3.06c0.05-1.15,0.07-2.08,0.07-2.79l2.14,0.64
		c-2.11,0.33-3.91,0.62-5.42,0.87c-1.51,0.25-2.8,0.49-3.88,0.71c-1.08,0.22-2.04,0.47-2.87,0.74c-0.81,0.29-1.5,0.63-2.06,1.01
		c-0.56,0.39-0.99,0.83-1.29,1.33c-0.3,0.5-0.45,1.09-0.45,1.77c0,0.77,0.19,1.45,0.58,2.04c0.39,0.59,0.95,1.06,1.7,1.41
		C530.47,309.86,531.39,310.03,532.5,310.03z"/>
	<path d="M567.82,315.6c-3.86,0-7-0.87-9.42-2.61c-2.42-1.74-3.88-4.18-4.4-7.33l7.13-1.1c0.37,1.55,1.18,2.76,2.43,3.65
		c1.25,0.89,2.84,1.33,4.75,1.33c1.68,0,2.98-0.33,3.9-1c0.92-0.67,1.38-1.58,1.38-2.74c0-0.71-0.17-1.29-0.51-1.72
		c-0.34-0.43-1.08-0.85-2.22-1.26c-1.14-0.41-2.89-0.92-5.25-1.54c-2.63-0.7-4.71-1.44-6.26-2.25s-2.66-1.75-3.33-2.85
		c-0.68-1.1-1.01-2.43-1.01-4c0-1.95,0.51-3.65,1.54-5.1c1.02-1.45,2.45-2.56,4.29-3.35c1.84-0.78,4-1.17,6.49-1.17
		c2.43,0,4.59,0.38,6.48,1.13c1.88,0.75,3.4,1.83,4.56,3.22c1.16,1.39,1.87,3.02,2.14,4.9l-7.13,1.27
		c-0.17-1.33-0.78-2.39-1.81-3.16c-1.03-0.77-2.41-1.21-4.13-1.3c-1.64-0.1-2.97,0.15-3.97,0.74c-1,0.59-1.51,1.42-1.51,2.48
		c0,0.6,0.2,1.11,0.61,1.54c0.41,0.43,1.22,0.85,2.45,1.27c1.23,0.43,3.06,0.95,5.49,1.56c2.49,0.64,4.49,1.37,5.98,2.19
		c1.5,0.82,2.58,1.8,3.25,2.94c0.67,1.14,1,2.52,1,4.14c0,3.15-1.14,5.62-3.43,7.42S571.85,315.6,567.82,315.6z"/>
	<path d="M587.06,314.73V273h6.23v21.96h0.84v19.76H587.06z M608.76,314.73v-15.07c0-0.99-0.07-2.08-0.2-3.27
		c-0.14-1.2-0.45-2.35-0.94-3.46c-0.49-1.11-1.23-2.02-2.2-2.74c-0.98-0.71-2.29-1.07-3.96-1.07c-0.89,0-1.77,0.14-2.64,0.43
		c-0.87,0.29-1.66,0.79-2.36,1.49c-0.71,0.71-1.27,1.67-1.7,2.9c-0.42,1.23-0.64,2.8-0.64,4.71l-4.14-1.77
		c0-2.67,0.52-5.08,1.55-7.24c1.03-2.16,2.55-3.89,4.56-5.17c2.01-1.28,4.48-1.93,7.42-1.93c2.32,0,4.23,0.39,5.74,1.16
		c1.51,0.77,2.7,1.76,3.59,2.96c0.89,1.2,1.54,2.47,1.97,3.83c0.42,1.35,0.7,2.63,0.83,3.84c0.13,1.21,0.19,2.19,0.19,2.94v17.47
		H608.76z"/>
	<path d="M623.36,314.73v-31.29h6.17v7.62l-0.75-0.99c0.39-1.04,0.9-1.99,1.55-2.85s1.42-1.57,2.33-2.13
		c0.77-0.52,1.63-0.93,2.56-1.23c0.94-0.3,1.9-0.48,2.88-0.55c0.99-0.07,1.94-0.02,2.87,0.13v6.52c-0.93-0.27-2-0.36-3.2-0.26
		c-1.21,0.1-2.29,0.43-3.26,1.01c-0.97,0.52-1.75,1.19-2.36,2c-0.61,0.81-1.06,1.73-1.35,2.77c-0.29,1.03-0.43,2.15-0.43,3.35v15.91
		H623.36z"/>
	<path d="M654.51,315.6c-2.26,0-4.17-0.43-5.74-1.29c-1.57-0.86-2.75-2-3.55-3.43c-0.8-1.43-1.2-3-1.2-4.72
		c0-1.51,0.25-2.86,0.75-4.07c0.5-1.21,1.27-2.25,2.32-3.13c1.04-0.88,2.39-1.6,4.06-2.16c1.25-0.41,2.73-0.77,4.42-1.1
		c1.69-0.33,3.52-0.63,5.5-0.91c1.98-0.28,4.05-0.58,6.22-0.91l-2.49,1.42c0.02-2.16-0.46-3.76-1.45-4.78
		c-0.98-1.02-2.65-1.54-4.98-1.54c-1.41,0-2.77,0.33-4.09,0.99s-2.23,1.79-2.75,3.39l-6.37-2c0.77-2.65,2.25-4.77,4.42-6.37
		c2.17-1.6,5.1-2.41,8.79-2.41c2.78,0,5.23,0.45,7.35,1.36c2.12,0.91,3.68,2.4,4.71,4.46c0.56,1.1,0.9,2.23,1.01,3.38
		c0.12,1.15,0.17,2.4,0.17,3.75v19.21h-6.11v-6.78l1.01,1.1c-1.41,2.26-3.06,3.92-4.94,4.97
		C659.68,315.07,657.33,315.6,654.51,315.6z M655.9,310.03c1.58,0,2.94-0.28,4.06-0.84c1.12-0.56,2.01-1.25,2.68-2.06
		c0.67-0.81,1.12-1.57,1.35-2.29c0.37-0.89,0.58-1.91,0.62-3.06c0.05-1.15,0.07-2.08,0.07-2.79l2.14,0.64
		c-2.11,0.33-3.91,0.62-5.42,0.87c-1.51,0.25-2.8,0.49-3.88,0.71c-1.08,0.22-2.04,0.47-2.87,0.74c-0.81,0.29-1.5,0.63-2.06,1.01
		c-0.56,0.39-0.99,0.83-1.29,1.33c-0.3,0.5-0.45,1.09-0.45,1.77c0,0.77,0.19,1.45,0.58,2.04s0.95,1.06,1.7,1.41
		C653.88,309.86,654.8,310.03,655.9,310.03z"/>
	<path d="M675.66,288.91v-5.48h21.82v5.48H675.66z M697.48,314.73c-2.07,0.39-4.09,0.56-6.07,0.51c-1.98-0.05-3.75-0.42-5.32-1.1
		c-1.56-0.68-2.75-1.77-3.56-3.26c-0.71-1.35-1.09-2.73-1.13-4.14s-0.06-3-0.06-4.78v-27.21h6.95v26.8c0,1.26,0.01,2.36,0.04,3.3
		c0.03,0.95,0.23,1.72,0.59,2.32c0.7,1.16,1.81,1.81,3.33,1.94c1.53,0.14,3.26,0.06,5.22-0.23V314.73z"/>
	<path d="M716.87,315.6c-3.17,0-5.95-0.69-8.34-2.06c-2.4-1.37-4.26-3.27-5.61-5.71c-1.34-2.43-2.01-5.23-2.01-8.4
		c0-3.42,0.66-6.39,1.97-8.91c1.31-2.52,3.14-4.48,5.48-5.87c2.34-1.39,5.04-2.09,8.11-2.09c3.25,0,6,0.76,8.27,2.27
		c2.27,1.52,3.96,3.66,5.06,6.42c1.1,2.76,1.52,6.02,1.25,9.76h-6.92v-2.55c-0.02-3.4-0.62-5.88-1.8-7.45
		c-1.18-1.56-3.03-2.35-5.56-2.35c-2.86,0-4.98,0.88-6.37,2.65c-1.39,1.77-2.09,4.35-2.09,7.75c0,3.17,0.7,5.62,2.09,7.36
		c1.39,1.74,3.42,2.61,6.08,2.61c1.72,0,3.2-0.38,4.45-1.14c1.25-0.76,2.21-1.87,2.88-3.32l6.9,2.09c-1.2,2.82-3.05,5.01-5.55,6.58
		S719.88,315.6,716.87,315.6z M706.09,301.02v-5.27h21.53v5.27H706.09z"/>
</g>
</svg>
